Coordinates
version=1
nRows=5
nColumns=46
inDegrees=yes

Units are S.I. units (second, meters, Newtons, ...)
Angles are in degrees.

endheader
time	pelvis_tilt	pelvis_list	pelvis_rotation	pelvis_tx	pelvis_ty	pelvis_tz	bb_angle	bb_tx	bb_ty	bb_tz	hip_flexion_r	hip_adduction_r	hip_rotation_r	knee_angle_r	knee_angle_r_beta	ankle_angle_r	subtalar_angle_r	mtp_angle_r	crank_angle_r	hip_flexion_l	hip_adduction_l	hip_rotation_l	knee_angle_l	knee_angle_l_beta	ankle_angle_l	subtalar_angle_l	mtp_angle_l	crank_angle_l	lumbar_extension	lumbar_bending	lumbar_rotation	arm_flex_r	arm_add_r	arm_rot_r	elbow_flex_r	pro_sup_r	wrist_flex_r	wrist_dev_r	arm_flex_l	arm_add_l	arm_rot_l	elbow_flex_l	pro_sup_l	wrist_flex_l	wrist_dev_l
      5.00000000	    -21.54297423	      8.41775672	      2.91489652	      0.07913880	      1.00191551	     -0.19293561	      0.00000000	      0.50000000	      0.00000000	      0.25000000	     50.39298957	    -12.11419663	     -1.62333164	     31.43410430	      0.54862862	     -9.09761033	     -0.15374287	      0.00000000	      0.00000000	     95.12228706	     -1.59765363	      3.20078564	    116.09312523	      2.02620727	    -16.54068098	     -6.54247630	      0.00000000	      0.00000000	    -50.94140382	    -11.87159771	     -4.84500244	     83.44156720	    -20.81586946	     33.54820048	     54.68980252	     39.01493311	      0.00000000	      0.00000000	     89.29090360	     -3.41163323	     31.03761274	     47.81020296	     42.26797486	      0.00000000	      0.00000000
      5.00500000	    -21.27222726	      8.66572480	      3.50359758	      0.08009860	      1.00463842	     -0.19289149	      0.00000000	      0.50000000	      0.00000000	      0.25000000	     48.72138040	    -12.98590397	     -2.77115276	     30.40946909	      0.53074536	    -10.01248449	      0.74061083	      0.00000000	      0.00000000	     96.21687513	     -0.86591228	      3.00327366	    116.14201825	      2.02706062	    -17.89208777	     -7.21210597	      0.00000000	      0.00000000	    -51.52777654	    -11.95757858	     -5.33942670	     83.51815900	    -21.16222056	     33.76361945	     54.04599159	     39.09299392	      0.00000000	      0.00000000	     89.31962360	     -2.83538201	     30.90109645	     47.65455061	     42.03229219	      0.00000000	      0.00000000
      5.01000000	    -21.24495143	      8.83411812	      3.90318328	      0.08076611	      1.00679580	     -0.19240531	      0.00000000	      0.50000000	      0.00000000	      0.25000000	     47.44736484	    -13.52564410	     -3.60814719	     29.58220732	      0.51630692	    -10.81536843	      1.32332132	      0.00000000	      0.00000000	     97.59368698	     -0.47134345	      2.92463725	    116.12502299	      2.02676400	    -19.10651404	     -7.29269949	      0.00000000	      0.00000000	    -51.80293312	    -12.16333576	     -5.80164542	     83.50814990	    -21.19497678	     33.90752549	     53.37131396	     39.16216332	      0.00000000	      0.00000000	     89.33633087	     -2.50123364	     30.71324313	     47.73450523	     41.82343454	      0.00000000	      0.00000000
      5.01500000	    -21.43017552	      8.96329406	      4.20967403	      0.08124719	      1.00845542	     -0.19178296	      0.00000000	      0.50000000	      0.00000000	      0.25000000	     46.53419727	    -13.89381182	     -4.20716571	     28.97798922	      0.50576132	    -11.41794057	      1.67443211	      0.00000000	      0.00000000	     99.06318708	     -0.15673579	      2.93917379	    116.05270002	      2.02550172	    -19.80558568	     -6.92108343	      0.00000000	      0.00000000	    -51.82594371	    -12.45978279	     -6.17496940	     83.30246706	    -21.21588170	     33.94110012	     53.04470292	     39.15600207	      0.00000000	      0.00000000	     89.36372010	     -2.28449705	     30.65810367	     47.91581274	     41.79230192	      0.00000000	      0.00000000
      5.02000000	    -21.36553485	      8.97091292	      4.57604034	      0.08148308	      1.01061318	     -0.19127807	      0.00000000	      0.50000000	      0.00000000	      0.25000000	     45.40519086	    -14.22061005	     -5.04047083	     28.51500065	      0.49768065	    -12.06514310	      1.89122021	      0.00000000	      0.00000000	    100.22226209	      0.21326987	      2.92196194	    115.86863453	      2.02228917	    -20.61535650	     -7.21011985	      0.00000000	      0.00000000	    -52.13061692	    -12.36314165	     -6.85757361	     83.80037504	    -19.97009951	     33.65590206	     51.01791975	     39.23349581	      0.00000000	      0.00000000	     89.33669583	     -2.56329209	     30.06276511	     48.55895320	     41.30677510	      0.00000000	      0.00000000
